{"title":"Arthur.3.The.War.Of.The.Two.Worlds.[2010].English.DvdRip.Xvid-Kn","uid":6731130,"size":1568271854,"categoryP":"video","categoryS":"movies","magnet":"?xt=urn:btih:379cc4a778f003ca1389bdb69cae8f4afd294b97&amp;dn=Arthur.3.The.War.Of.The.Two.Worlds.%5B2010%5D.English.DvdRip.Xvid-Kn&amp;tr=udp%3A%2F%2Ftracker.openbittorrent.com%3A80&amp;tr=udp%3A%2F%2Fopen.demonii.com%3A1337&amp;tr=udp%3A%2F%2Ftracker.coppersurfer.tk%3A6969&amp;tr=udp%3A%2F%2Fexodus.desync.com%3A6969","seeders":0,"leechers":1,"uploader":"Jon.Pson","files":-1,"time":1318160565,"description":"With Maltazard now 7 feet tall and Arthur still 2 inches small, our hero must find a way to grow back to his normal size ans stop the Evil M once and for all, with the help of Selenia and Betameche. \n\n\n\nGeneral\nComplete name                    : Z:\\Barnfilmer\\Arthur.3.The.War.Of.The.Two.Worlds.[2010].English.DvdRip.Xvid-KnÃƒÂ£\\Arthur.3.The.War.Of.The.Two.Worlds.[2010].English.DvdRip.Xvid-KnÃƒÂ£.avi\nFormat                           : AVI\nFormat/Info                      : Audio Video Interleave\nFile size                        : 1.46 GiB\nDuration                         : 1h 39mn\nOverall bit rate                 : 2 111 Kbps\nWriting application              : VirtualDubMod 1.5.4.1 (build 2178/release)\nWriting library                  : VirtualDub build 32842/release\n\nVideo\nID                               : 0\nFormat                           : MPEG-4 Visual\nFormat profile                   : Advanced Simple@L5\nFormat settings, BVOP            : 1\nFormat settings, QPel            : No\nFormat settings, GMC             : No warppoints\nFormat settings, Matrix          : Custom\nCodec ID                         : XVID\nCodec ID/Hint                    : XviD\nDuration                         : 1h 39mn\nBit rate                         : 1 362 Kbps\nWidth                            : 624 pixels\nHeight                           : 272 pixels\nDisplay aspect ratio             : 2.25:1\nFrame rate                       : 25.000 fps\nColor space                      : YUV\nChroma subsampling               : 4:2:0\nBit depth                        : 8 bits\nScan type                        : Progressive\nCompression mode                 : Lossy\nBits/(Pixel*Frame)               : 0.321\nStream size                      : 965 MiB (65%)\nWriting library                  : XviD 1.2.1 (UTC 2008-12-04)\n\nAudio\nID                               : 1\nFormat                           : DTS\nFormat/Info                      : Digital Theater Systems\nCodec ID                         : 2001\nCodec ID/Info                    : Digital Theater Systems\nDuration                         : 1h 37mn\nBit rate mode                    : Constant\nBit rate                         : 755 Kbps\nChannel(s)                       : 6 channels\nChannel positions                : Front: L C R, Side: L R, LFE\nSampling rate                    : 48.0 KHz\nBit depth                        : 16 bits\nCompression mode                 : Lossy\nDelay relative to video          : 1s 506ms\nStream size                      : 524 MiB (35%)\nAlignment                        : Split accross interleaves\nInterleave, duration             : 41 ms (1.02 video frame)\nInterleave, preload duration     : 500 ms\n\n","torrent":{"xt":"urn:btih:379cc4a778f003ca1389bdb69cae8f4afd294b97","amp;dn":"Arthur.3.The.War.Of.The.Two.Worlds.%5B2010%5D.English.DvdRip.Xvid-Kn","amp;tr":["udp%3A%2F%2Ftracker.openbittorrent.com%3A80","udp%3A%2F%2Fopen.demonii.com%3A1337","udp%3A%2F%2Ftracker.coppersurfer.tk%3A6969","udp%3A%2F%2Fexodus.desync.com%3A6969"],"infoHash":"379cc4a778f003ca1389bdb69cae8f4afd294b97","infoHashBuffer":{"type":"Buffer","data":[55,156,196,167,120,240,3,202,19,137,189,182,156,174,143,74,253,41,75,151]},"announce":[],"urlList":[]}}